# xmcd
#
# Track frame offsets: 
#        183
#        15735
#        32730
#        54773
#        71423
#        89018
#        104900
#        119583
#        138480
#        153255
#        171688
#        186098
#        205433
#        225230
#        239168
#        257673
#        276530
#        294008
#
# Disc length: 4095 seconds
#
# Revision: 4
# Processed by: cddbd v1.5.2PL0 Copyright (c) Steve Scherf et al.
# Submitted via: ExactAudioCopy v0.95b4
#
DISCID=110ffd12
DTITLE=VARIOUS  ARTISTS - SOUNDS OF THE 70s VOL 1
DYEAR=1993
DGENRE=Oldies
TTITLE0=THE REAL THING-YOU TO ME ARE EVERTHING (76)
TTITLE1=T.REX-TELEGRAM SAM (72)
TTITLE2=SHIRLEY and COMPANY-SHAME, SHAME, SHAME (75)
TTITLE3=JIMMY HELMS-GONNA MAKE YOU AN OFFER YOU CAN'T REFUSE (73)
TTITLE4=THE TRAMMPS-HOLD BACK THE NIGHT(75)
TTITLE5=BONNIE TYLER-IT'S A HEARTACHE (77)
TTITLE6=ANDREA TRUE CONNECTION-MORE, MORE, MORE (76)
TTITLE7=SIMON MAY-THE SUMMER OF MY LIFE (76)
TTITLE8=STATUS QUO-IN MY CHAIR (70)
TTITLE9=Melanie - What Have They Done To My Song Ma?
TTITLE10=MUNGO JERRY-LADY ROSE (71)
TTITLE11=THE MOMENTS-JACK IN THE BOX (77)
TTITLE12=SYLVIA-PILLOW TALK (72)
TTITLE13=10cc - The Dean And I
TTITLE14=JONATHAN RICHMAN and THE MODERN LOVERS-ROADRUNNER (77)
TTITLE15=T.REX-JEEPSTER (71)
TTITLE16=GLADYS KNIGHT and THE PIPS-SO SAD THE SONG (76)
TTITLE17=Sweet Sensation - Purely By Coincidence
EXTD=YEAR: 1993
EXTT0=
EXTT1=
EXTT2=
EXTT3=
EXTT4=
EXTT5=
EXTT6=
EXTT7=
EXTT8=
EXTT9=
EXTT10=
EXTT11=
EXTT12=
EXTT13=
EXTT14=
EXTT15=
EXTT16=
EXTT17=
PLAYORDER=
